<svg width="66.944" height="69.336" viewBox="0 0 66.944 69.336" xmlns="http://www.w3.org/2000/svg">
    <g id="svgGroup" stroke-linecap="round" fill-rule="evenodd" font-size="9pt" stroke="#000" stroke-width="0.25mm" fill="#000" style="stroke:#FAE6FA;stroke-width:0.3mm;fill:#FAE6FA">
        <path d="M 26.368 56.299 L 27.442 54.786 L 25.782 52.881 Q 21.583 48.194 20.606 41.944 A 19.189 19.189 0 0 1 20.508 40.098 A 17.627 17.627 0 0 1 20.508 40.04 A 12.777 12.777 0 0 1 22.804 32.751 A 15.776 15.776 0 0 1 23.121 32.3 A 10.778 10.778 0 0 1 28.086 28.569 A 15.47 15.47 0 0 1 30.958 27.784 A 12.647 12.647 0 0 1 31.849 27.674 A 9.589 9.589 0 0 1 32.666 27.637 A 7.243 7.243 0 0 1 33.527 27.692 Q 34.003 27.749 34.539 27.866 A 14.837 14.837 0 0 1 35.206 28.028 A 21.485 21.485 0 0 0 35.804 28.135 Q 36.449 28.24 36.9 28.264 A 4.761 4.761 0 0 0 37.159 28.272 A 1.216 1.216 0 0 0 37.285 28.266 Q 37.51 28.242 37.549 28.125 A 0.843 0.843 0 0 0 37.634 27.979 Q 38.013 27.21 39.551 22.852 Q 41.948 15.996 43.31 12.718 A 58.925 58.925 0 0 1 43.36 12.598 Q 44.819 8.45 45.894 5.068 A 184.84 184.84 0 0 0 46.045 4.59 A 48.089 48.089 0 0 1 46.325 3.459 Q 46.721 1.944 47.04 1.238 A 4.228 4.228 0 0 1 47.071 1.172 A 2.639 2.639 0 0 1 47.46 0.586 A 1.698 1.698 0 0 1 48.78 0 Q 50.445 0 50.616 1.888 A 5.068 5.068 0 0 1 50.635 2.344 A 13.618 13.618 0 0 1 50.56 3.749 A 15.101 15.101 0 0 1 50.538 3.956 A 122.33 122.33 0 0 0 50.151 9.076 Q 49.805 15.238 49.805 23.731 A 442.268 442.268 0 0 0 49.842 29.581 Q 49.926 35.925 50.203 40.546 A 121.517 121.517 0 0 0 50.391 43.213 A 419.541 419.541 0 0 0 50.782 46.43 A 344.529 344.529 0 0 0 51.172 49.439 Q 51.453 51.53 51.861 53.077 A 16.317 16.317 0 0 0 52.198 54.2 L 53.809 52.54 A 18.58 18.58 0 0 0 57.144 48.108 A 14.84 14.84 0 0 0 58.887 41.065 A 14.387 14.387 0 0 0 58.806 39.614 Q 58.653 38.112 58.21 36.116 A 50.751 50.751 0 0 0 58.057 35.45 A 4.961 4.961 0 0 1 58.015 35.292 Q 57.959 35.071 57.959 34.961 Q 57.959 34.679 58.141 34.669 A 0.247 0.247 0 0 1 58.155 34.668 A 0.788 0.788 0 0 1 58.741 34.952 Q 59.195 35.439 59.473 36.768 A 17.312 17.312 0 0 1 59.76 38.692 Q 59.851 39.646 59.862 40.71 A 28.677 28.677 0 0 1 59.864 41.016 A 27.237 27.237 0 0 1 59.813 42.728 Q 59.723 44.152 59.473 45.215 A 18.819 18.819 0 0 1 57.169 50.487 A 25.311 25.311 0 0 1 54.541 53.956 L 52.54 56.055 Q 55.665 64.356 59.131 65.284 A 6.583 6.583 0 0 0 60.048 65.416 A 5.714 5.714 0 0 0 60.45 65.43 Q 63.428 65.43 65.137 62.549 Q 66.163 60.792 66.602 60.792 Q 66.944 60.792 66.944 61.475 Q 66.944 62.606 65.606 64.296 A 16.456 16.456 0 0 1 64.844 65.186 Q 63.846 66.276 62.805 66.837 A 5.664 5.664 0 0 1 62.647 66.919 A 3.663 3.663 0 0 1 61.919 67.178 Q 60.733 67.481 58.545 67.481 Q 57.614 67.439 56.535 66.956 A 8.678 8.678 0 0 1 56.202 66.797 Q 54.005 65.645 52.101 62.874 A 23.505 23.505 0 0 1 50.782 60.694 A 26.959 26.959 0 0 0 50.351 59.895 Q 49.509 58.403 49.102 58.266 A 0.245 0.245 0 0 0 49.024 58.252 A 0.311 0.311 0 0 0 48.969 58.257 Q 48.939 58.262 48.915 58.274 A 0.145 0.145 0 0 0 48.877 58.301 A 10.604 10.604 0 0 1 46.763 59.015 Q 45.686 59.266 44.404 59.379 A 25.751 25.751 0 0 1 42.139 59.473 A 35.159 35.159 0 0 1 37.621 59.201 Q 35.319 58.902 33.421 58.275 A 14.987 14.987 0 0 1 30.03 56.69 A 17.534 17.534 0 0 0 29.638 56.408 Q 28.873 55.874 28.627 55.86 A 0.227 0.227 0 0 0 28.614 55.86 A 0.152 0.152 0 0 0 28.534 55.908 Q 28.343 56.079 27.814 56.862 A 36.903 36.903 0 0 0 27.54 57.276 A 25.634 25.634 0 0 1 22.958 63.084 A 29.771 29.771 0 0 1 21.827 64.112 Q 17.44 67.897 13.182 68.94 A 13.498 13.498 0 0 1 9.961 69.336 Q 8.838 69.336 7.959 69.141 A 11.128 11.128 0 0 1 4.184 67.513 A 9.986 9.986 0 0 1 0.879 63.624 Q 0 61.524 0 59.131 Q 0 53.028 4.297 48.438 Q 7.276 45.459 10.401 45.459 A 6.147 6.147 0 0 1 11.673 45.597 A 7.161 7.161 0 0 1 12.11 45.704 A 4.534 4.534 0 0 1 12.946 45.914 A 3.482 3.482 0 0 1 13.697 46.29 Q 14.356 46.729 15.259 47.632 A 15.533 15.533 0 0 1 15.776 48.173 Q 16.292 48.742 16.578 49.195 Q 16.993 49.854 17.188 50.733 A 8.081 8.081 0 0 1 17.383 52.491 A 4.625 4.625 0 0 1 17.377 52.714 Q 17.359 53.089 17.286 53.711 Q 17.189 54.529 16.809 55.464 A 9.354 9.354 0 0 1 16.797 55.494 A 3.258 3.258 0 0 1 16.621 55.862 Q 16.407 56.239 16.156 56.373 A 0.603 0.603 0 0 1 15.87 56.446 A 0.374 0.374 0 0 1 15.716 56.417 Q 15.528 56.333 15.528 56.006 Q 15.528 55.595 15.771 54.905 A 8.878 8.878 0 0 1 15.87 54.639 A 8.054 8.054 0 0 0 16.162 53.505 A 6.067 6.067 0 0 0 16.26 52.442 A 4.884 4.884 0 0 0 14.974 49.145 A 7.698 7.698 0 0 0 13.77 48.047 A 6.684 6.684 0 0 0 12.363 47.385 A 5.172 5.172 0 0 0 10.743 47.12 A 4.974 4.974 0 0 0 7.874 48.074 Q 6.31 49.157 4.883 51.465 A 18.748 18.748 0 0 0 3.396 54.34 Q 2.695 56.066 2.509 57.709 A 10.467 10.467 0 0 0 2.442 58.887 Q 2.442 61.329 3.76 63.526 A 6.453 6.453 0 0 0 5.953 65.699 Q 6.928 66.301 8.204 66.7 A 10.469 10.469 0 0 0 10.84 67.042 Q 13.397 67.042 16.473 65.636 A 24.993 24.993 0 0 0 18.482 64.6 A 17.568 17.568 0 0 0 22.094 61.81 Q 23.565 60.356 24.946 58.437 A 36.114 36.114 0 0 0 26.368 56.299 Z M 31.885 48.292 L 31.202 50.196 A 137.856 137.856 0 0 0 30.893 50.876 Q 29.894 53.091 29.883 53.364 A 0.146 0.146 0 0 0 29.883 53.37 A 0.262 0.262 0 0 0 29.952 53.517 Q 30.185 53.816 31.213 54.442 A 25.306 25.306 0 0 0 31.543 54.639 A 20.682 20.682 0 0 0 42.725 57.813 Q 44.874 57.813 46.778 57.276 Q 47.407 57.024 47.91 56.826 A 130.737 130.737 0 0 1 48.072 56.763 A 6.199 6.199 0 0 0 48.248 56.691 Q 48.567 56.555 48.622 56.476 A 0.054 0.054 0 0 0 48.633 56.446 A 0.272 0.272 0 0 0 48.626 56.392 Q 48.601 56.274 48.487 56.006 Q 46.854 51.06 45.8 42.813 A 142.926 142.926 0 0 1 45.704 42.042 Q 45.405 39.761 45.134 38.325 A 25.279 25.279 0 0 0 44.971 37.525 A 10.33 10.33 0 0 0 44.721 36.592 Q 44.437 35.714 44.043 35.157 Q 42.92 33.692 40.479 32.178 Q 39.051 31.345 38.428 31.189 A 1.031 1.031 0 0 0 38.184 31.153 A 0.311 0.311 0 0 0 38.129 31.157 Q 38.099 31.163 38.075 31.175 A 0.145 0.145 0 0 0 38.038 31.202 A 5.556 5.556 0 0 0 37.928 31.468 Q 37.448 32.692 35.397 38.532 A 1766.878 1766.878 0 0 0 35.108 39.356 Q 33.35 44.532 31.885 48.292 Z M 30.127 49.17 L 30.469 48.292 A 32.229 32.229 0 0 0 30.836 47.396 Q 31.715 45.174 33.77 39.481 A 1087.564 1087.564 0 0 0 34.131 38.477 A 460.378 460.378 0 0 0 34.738 36.773 Q 36.678 31.288 36.718 30.641 A 0.409 0.409 0 0 0 36.719 30.616 Q 36.719 30.431 35.977 30.246 A 7.073 7.073 0 0 0 35.889 30.225 A 21.264 21.264 0 0 0 34.271 29.98 Q 33.505 29.895 32.814 29.885 A 12.851 12.851 0 0 0 32.618 29.883 Q 31.104 29.883 28.956 30.616 A 10.619 10.619 0 0 0 25.562 32.991 Q 23.096 35.634 23.096 39.942 Q 23.096 43.311 24.952 47.217 A 12.327 12.327 0 0 0 25.664 48.496 A 15.759 15.759 0 0 0 26.368 49.512 A 33.784 33.784 0 0 0 26.976 50.327 Q 28.271 52.002 28.711 52.002 Q 28.809 52.002 28.858 51.929 Q 28.899 51.867 29.152 51.311 A 77.954 77.954 0 0 0 29.249 51.099 A 234.656 234.656 0 0 1 29.432 50.695 Q 29.683 50.14 30.016 49.413 A 676.837 676.837 0 0 1 30.127 49.17 Z M 44.776 33.545 L 44.776 25.684 Q 44.776 18.279 44.97 14.616 A 73.83 73.83 0 0 1 44.971 14.6 A 69.355 69.355 0 0 0 45.015 13.991 Q 45.075 13.117 45.093 12.476 A 440.075 440.075 0 0 0 45.099 12.274 Q 45.116 11.652 45.118 11.537 A 1.401 1.401 0 0 0 45.118 11.524 Q 44.975 11.714 44.043 14.202 A 218.524 218.524 0 0 0 43.995 14.332 A 352.238 352.238 0 0 0 43.093 16.772 Q 42.636 18.022 42.136 19.416 A 610.785 610.785 0 0 0 41.797 20.362 Q 40.748 23.299 39.916 25.659 A 974.746 974.746 0 0 0 39.649 26.417 L 38.721 29.102 L 39.795 29.688 A 9.363 9.363 0 0 1 40.618 30.16 Q 41.426 30.673 42.461 31.498 A 38.809 38.809 0 0 1 43.116 32.032 A 12.265 12.265 0 0 1 43.421 32.291 Q 43.908 32.717 44.693 33.466 A 87.295 87.295 0 0 1 44.776 33.545 Z" vector-effect="non-scaling-stroke"/>
    </g>
</svg>
